<?xml version="1.0" encoding="UTF-8"?> <svg xmlns="http://www.w3.org/2000/svg" width="100" height="100" viewBox="0 0 100 100" fill="none"><path d="M61.552 5.01615C64.6695 8.35125 69.0765 10.1774 73.6395 10.0231C82.3658 9.72662 89.6797 16.5617 89.9762 25.2895C89.9885 25.6455 89.9885 26.0035 89.9762 26.3596C89.8219 30.9226 91.648 35.3295 94.9831 38.4471C101.364 44.4101 101.702 54.4152 95.7392 60.7959C95.4952 61.0555 95.2427 61.3082 94.9831 61.552C91.648 64.6695 89.8219 69.0765 89.9762 73.6395C90.2727 82.3657 83.4376 89.6797 74.7098 89.9762C74.3538 89.9885 73.9958 89.9885 73.6397 89.9762C69.0767 89.8219 64.6697 91.648 61.5522 94.9831C55.5892 101.364 45.5841 101.702 39.2033 95.7391C38.9438 95.4952 38.691 95.2427 38.4473 94.9831C35.3298 91.648 30.9228 89.8219 26.3598 89.9762C17.6335 90.2726 10.3196 83.4376 10.0231 74.7098C10.0108 74.3537 10.0108 73.9957 10.0231 73.6397C10.1774 69.0767 8.35126 64.6697 5.01616 61.5522C-1.3646 55.589 -1.70308 45.5839 4.25992 39.2033C4.50386 38.9437 4.75639 38.691 5.01596 38.4473C8.35107 35.3297 10.1772 30.9228 10.0229 26.3598C9.72644 17.6333 16.5615 10.3194 25.2895 10.0229C25.6455 10.0106 26.0035 10.0106 26.3596 10.0229C30.9226 10.1772 35.3296 8.35106 38.4471 5.01595C44.4103 -1.36461 54.4154 -1.70308 60.796 4.25991C61.0573 4.50385 61.3083 4.75639 61.552 5.01615Z" fill="#F0DBC2"></path><path d="M94.355 22.807C92.4093 22.807 90.6007 23.8087 89.5691 25.4595L82.4552 36.8417L85.9639 40.3505L97.3461 33.2365C99.99 31.584 100.794 28.1032 99.1408 25.4595C98.1094 23.8087 96.3006 22.807 94.355 22.807Z" fill="#D68033"></path><path d="M25.4596 89.5691C22.8157 91.2216 22.0122 94.7024 23.6649 97.3461C25.3176 99.9898 28.7982 100.794 31.4419 99.1408C32.1683 98.6865 32.7823 98.0725 33.2366 97.3461L40.3506 85.9639L36.8418 82.4552L25.4596 89.5691Z" fill="#D68033"></path><path d="M45.6147 91.2269L91.2277 45.6139L77.1927 31.5789L31.5797 77.1919L45.6147 91.2269Z" fill="#F09E3E"></path><path d="M45.6146 91.2269L91.2277 45.6139L85.0872 39.4734L39.4741 85.0865L45.6146 91.2269Z" fill="#F09235"></path><path d="M47.8817 50.3622L50.3628 47.8811L33.6967 31.2151L31.2157 33.6961L47.8817 50.3622Z" fill="#E6CCAF"></path><path d="M56.653 41.5901L59.134 39.1091L46.8544 26.8295L44.3734 29.3105L56.653 41.5901Z" fill="#E6CCAF"></path><path d="M39.1059 59.1338L41.5869 56.6527L29.3073 44.3731L26.8263 46.8542L39.1059 59.1338Z" fill="#E6CCAF"></path><path d="M30.3356 67.9067L32.8166 65.4256L25.7992 58.4082L23.3182 60.8892L30.3356 67.9067Z" fill="#E6CCAF"></path><path d="M65.427 32.8162L67.908 30.3352L60.8905 23.3177L58.4095 25.7988L65.427 32.8162Z" fill="#E6CCAF"></path></svg> 