<?xml version="1.0" encoding="UTF-8"?> <svg xmlns="http://www.w3.org/2000/svg" width="101" height="101" viewBox="0 0 101 101" fill="none"><path d="M50.0025 0.0020752C22.3888 0.0020752 0.00253296 22.3884 0.00253296 50.0021C0.00253296 77.6158 22.3886 100.002 50.0025 100.002C77.6164 100.002 100.003 77.616 100.003 50.0021C100.003 22.3882 77.6162 0.0020752 50.0025 0.0020752ZM50.0025 67.2434C40.4802 67.2434 32.7612 59.5244 32.7612 50.0021C32.7612 40.4797 40.4802 32.7608 50.0025 32.7608C59.5249 32.7608 67.2438 40.4797 67.2438 50.0021C67.2438 59.5244 59.5249 67.2434 50.0025 67.2434Z" fill="#F09E3E"></path><path d="M87.9734 17.491C86.3975 66.7744 45.4597 83.0046 18.3855 88.7284C39.7699 106.191 71.2629 103.012 88.7267 81.6288C104.032 62.8832 103.715 35.8692 87.9734 17.491Z" fill="#F09235"></path><path d="M91.9542 58.7816C88.1681 53.5389 88.1681 46.46 91.9542 41.217C96.799 34.5915 95.3559 25.2938 88.73 20.4491C85.7818 18.2923 82.1422 17.2976 78.5059 17.6544C72.1042 18.3441 66.0007 14.7839 63.4508 8.87223C60.2645 1.44355 51.6594 -1.99765 44.2283 1.18828C40.7749 2.66933 38.0232 5.42088 36.5438 8.87243C33.9956 14.779 27.8973 18.3392 21.5006 17.6546C13.3317 16.8529 6.05923 22.8251 5.25762 30.9936C4.90077 34.6296 5.89555 38.269 8.05249 41.2172C11.8386 46.46 11.8386 53.5389 8.05249 58.7818C3.20772 65.4074 4.65076 74.705 11.2767 79.5497C14.2249 81.7065 17.8645 82.7012 21.5008 82.3444C27.9008 81.6548 34.0042 85.2149 36.5543 91.1266C39.7406 98.5555 48.3457 101.997 55.7768 98.8108C59.2303 97.3297 61.982 94.5782 63.4614 91.1266C66.0095 85.22 72.1079 81.6598 78.5045 82.3444C86.6735 83.1462 93.9459 77.1739 94.7475 69.0054C95.1044 65.3695 94.1096 61.73 91.9526 58.7818L91.9542 58.7816ZM50.0025 67.2398C40.4801 67.2398 32.7612 59.5213 32.7612 49.9994C32.7612 40.4776 40.4801 32.7591 50.0025 32.7591C59.5248 32.7591 67.2438 40.4776 67.2438 49.9994C67.2438 59.5213 59.5248 67.2398 50.0025 67.2398Z" fill="#BF7341"></path><path d="M91.9545 58.7816C88.1684 53.5388 88.1684 46.4599 91.9545 41.217C95.1855 36.8207 95.7235 30.9969 93.3493 26.0833C86.7769 65.2192 59.4529 81.1149 34.2114 87.4162C35.1718 88.5299 35.9615 89.7799 36.5545 91.1264C39.7407 98.5552 48.3459 101.996 55.7769 98.8105C59.2304 97.3295 61.9821 94.5779 63.4615 91.1264C66.0099 85.2197 72.108 81.6596 78.5046 82.3442C86.6736 83.1459 93.946 77.1737 94.7476 69.0052C95.1045 65.3692 94.1097 61.7296 91.9528 58.7816H91.9545V58.7816Z" fill="#B56D3E"></path><path d="M47.1352 19.5367L52.299 14.4144L49.865 12L44.7012 17.1223L47.1352 19.5367Z" fill="#965735"></path><path d="M60.9065 28.075L66.0703 22.9527L63.6363 20.5383L58.4725 25.6605L60.9065 28.075Z" fill="#965735"></path><path d="M17.1638 38.3188L19.5978 35.9043L14.434 30.7821L12 33.1965L17.1638 38.3188Z" fill="#965735"></path><path d="M26.4763 41.7312L31.6401 36.609L29.2061 34.1945L24.0423 39.3168L26.4763 41.7312Z" fill="#965735"></path><path d="M20.6022 62.2199L23.0362 59.8054L17.8724 54.6832L15.4383 57.0976L20.6022 62.2199Z" fill="#965735"></path><path d="M26.4814 74.1702L31.6452 69.048L29.2112 66.6335L24.0474 71.7558L26.4814 74.1702Z" fill="#965735"></path><path d="M48.1429 81L50.5769 78.5856L45.4131 73.4633L42.9791 75.8778L48.1429 81Z" fill="#965735"></path><path d="M62.625 77.5864L67.7888 72.4642L65.3548 70.0497L60.1909 75.172L62.625 77.5864Z" fill="#965735"></path><path d="M77.4042 38.3176L79.8382 35.9031L74.6744 30.7809L72.2404 33.1953L77.4042 38.3176Z" fill="#965735"></path><path d="M78.1147 55.3909L83.2786 50.2687L80.8445 47.8542L75.6807 52.9765L78.1147 55.3909Z" fill="#965735"></path><path d="M36.0958 28.0752L38.5298 25.6608L33.366 20.5385L30.932 22.953L36.0958 28.0752Z" fill="#965735"></path><path d="M79.8362 72.4605L85 67.3383L82.566 64.9238L77.4022 70.0461L79.8362 72.4605Z" fill="#965735"></path></svg> 