<?xml version="1.0" encoding="UTF-8"?> <svg xmlns="http://www.w3.org/2000/svg" width="87" height="100" viewBox="0 0 87 100" fill="none"><path d="M26.6498 13.7932V32.7586C26.6498 34.6637 28.1931 36.2069 30.0984 36.2069C32.0036 36.2069 33.5469 34.6637 33.5469 32.7586C33.5469 30.8536 35.0902 29.3104 36.9955 29.3104C38.9007 29.3104 40.444 30.8536 40.444 32.7586V34.4829C40.444 36.3879 41.9873 37.9311 43.8926 37.9311C45.7978 37.9311 47.3411 36.3879 47.3411 34.4829V13.7932H26.6498Z" fill="#FFCD6B"></path><path d="M83.5513 6.89648H49.0657V13.793H83.5515C85.4567 13.793 87 12.2498 87 10.3447C87 8.43965 85.455 6.89648 83.5513 6.89648Z" fill="#965735"></path><path d="M7.68257 44.8275H66.3083C69.1654 44.8275 71.4812 47.1429 71.4812 50C71.4812 52.8568 69.1656 55.1724 66.3083 55.1724H7.68257C4.82549 55.1724 2.50966 52.857 2.50966 50C2.50986 47.1431 4.82549 44.8275 7.68257 44.8275Z" fill="#F0DBC2"></path><path d="M64.5842 100H9.40694L3.92542 90.6897C-2.92342 79.0535 -0.631815 64.2035 9.40694 55.1725H64.5842C74.6229 64.2035 76.9145 79.0535 70.0657 90.6897L64.5842 100Z" fill="#F0DBC2"></path><path d="M33.547 0H40.444C46.1584 0 50.7899 4.63105 50.7899 10.3449C50.7899 16.0588 46.1584 20.6898 40.444 20.6898H33.547C27.8326 20.6898 23.2011 16.0588 23.2011 10.3449C23.2013 4.63105 27.8328 0 33.547 0Z" fill="#BF7341"></path><path d="M73.0074 68.9654H0.983768C-0.988863 76.3086 0.0715804 84.1361 3.92543 90.6896L9.40696 100H64.5842L70.0657 90.6896C73.9194 84.1361 74.9798 76.3086 73.0074 68.9654Z" fill="#FFCD6B"></path><path d="M38.7231 0H35.2746V20.6896H38.7231V0Z" fill="#FFCD6B"></path><path d="M28.374 1.39497V19.295C29.4395 19.9122 30.6088 20.3311 31.8225 20.5346V0.155122C30.607 0.358638 29.4397 0.777583 28.374 1.39497Z" fill="#FFCD6B"></path><path d="M42.1684 0.155122V20.5344C43.3824 20.3309 44.5514 19.912 45.6169 19.2948V1.39497C44.5496 0.777583 43.3824 0.358638 42.1684 0.155122Z" fill="#FFCD6B"></path><path d="M64.5842 56.8964H18.0284C17.0766 56.8964 16.304 56.124 16.304 55.1722C16.304 54.2205 17.0766 53.448 18.0284 53.448H64.5842C65.536 53.448 66.3086 54.2205 66.3086 55.1722C66.3086 56.124 65.536 56.8964 64.5842 56.8964Z" fill="#E6CCAF"></path><path d="M73.0074 68.9655H57.4889C53.7057 82.8448 43.8306 94.2586 30.6399 100H64.5842L70.0657 90.6897C73.9194 84.1362 74.9798 76.3086 73.0074 68.9655Z" fill="#FFB75E"></path></svg> 